<svg width="243" height="217" viewBox="0 0 243 217" fill="none" xmlns="http://www.w3.org/2000/svg">
<g filter="url(#filter0_d_965_118)">
<rect width="230" height="209" transform="translate(4.5)" fill="white"/>
<g clip-path="url(#clip0_965_118)">
<g clip-path="url(#clip1_965_118)">
<path d="M119.841 52.8025C124.145 52.8025 127.493 49.3071 127.493 45.0173C127.493 40.7276 123.985 37.3911 119.681 37.3911C115.377 37.3911 112.029 40.8865 112.029 45.0173C112.029 49.3071 115.536 52.8025 119.841 52.8025ZM119.681 40.5687C119.841 40.5687 119.841 40.5687 119.681 40.5687C122.232 40.5687 124.304 42.6342 124.304 45.1762C124.304 47.7183 122.232 49.6249 119.681 49.6249C117.131 49.6249 115.218 47.5594 115.218 45.1762C115.218 42.6342 117.29 40.5687 119.681 40.5687Z" fill="#0D5C63"/>
<path d="M143.434 51.8487C140.405 49.1477 136.419 47.7178 132.275 47.8767H130.999C130.68 49.1477 130.202 50.2599 129.564 51.2132C130.521 51.0543 131.318 51.0543 132.275 51.0543C135.303 50.8954 138.332 51.8487 140.723 53.5964V65.0357H143.912V52.3253L143.434 51.8487Z" fill="#0D5C63"/>
<path d="M128.609 37.7083C129.406 35.8017 131.638 34.8484 133.71 35.6428C135.623 36.4372 136.579 38.6615 135.782 40.727C135.145 42.1569 133.71 43.1102 132.275 43.1102C131.956 43.1102 131.478 43.1102 131.159 42.9513C131.319 43.7457 131.319 44.5401 131.319 45.1756V46.1289C131.638 46.1289 131.956 46.2878 132.275 46.2878C136.261 46.2878 139.449 43.1102 139.449 39.2971C139.449 35.3251 136.261 32.1475 132.435 32.1475C129.884 32.1475 127.652 33.4185 126.377 35.6428C127.174 36.1195 127.971 36.755 128.609 37.7083Z" fill="#0D5C63"/>
<path d="M110.435 51.3724C109.798 50.4191 109.319 49.3069 109 48.0359H107.725C103.58 47.877 99.595 49.3069 96.5661 51.849L96.0879 52.3257V65.0361H99.2762V53.5967C101.827 51.849 104.696 50.8957 107.725 51.0546C108.682 51.0546 109.638 51.2135 110.435 51.3724Z" fill="#0D5C63"/>
<path d="M107.725 46.1295C108.043 46.1295 108.362 46.1295 108.681 45.9706V45.0174C108.681 44.223 108.681 43.4286 108.841 42.793C108.522 42.9519 108.043 42.9519 107.725 42.9519C105.652 42.9519 103.899 41.2042 103.899 39.1388C103.899 37.0734 105.652 35.3257 107.725 35.3257C109.319 35.3257 110.754 36.279 111.391 37.7089C112.029 36.9145 112.985 36.1201 113.782 35.4846C111.71 32.1481 107.406 31.0359 104.058 33.1014C100.71 35.1668 99.5945 39.4566 101.667 42.793C102.942 44.8585 105.174 46.1295 107.725 46.1295Z" fill="#0D5C63"/>
<path d="M132.913 61.3817L132.594 60.9051C129.406 57.4097 124.942 55.3443 120.16 55.5032C115.377 55.3443 110.754 57.4097 107.566 60.9051L107.247 61.3817V73.4566C107.247 74.8865 108.363 76.1576 109.957 76.1576H130.362C131.797 76.1576 133.072 74.8865 133.072 73.4566V61.3817H132.913ZM129.725 72.98H110.435V62.4939C112.986 59.9518 116.493 58.6808 120.16 58.6808C123.667 58.5219 127.174 59.9518 129.725 62.4939V72.98Z" fill="#0D5C63"/>
</g>
</g>
<path d="M76.5 125.96C78.2333 125.96 79.5667 125.387 80.5 124.24C81.46 123.067 82.0467 121.48 82.26 119.48C80.5533 120.627 78.7133 121.2 76.74 121.2C74.1267 121.2 71.94 120.347 70.18 118.64C68.4467 116.907 67.58 114.627 67.58 111.8C67.58 108.973 68.5133 106.707 70.38 105C72.2733 103.267 74.6467 102.4 77.5 102.4C79.4733 102.4 81.18 102.787 82.62 103.56C84.0867 104.307 85.2333 105.36 86.06 106.72C87.6333 109.36 88.42 112.667 88.42 116.64C88.42 119.2 88.1 121.453 87.46 123.4C86.8467 125.32 86.0067 126.84 84.94 127.96C82.7533 130.2 80.1 131.32 76.98 131.32C75.6733 131.32 74.42 131.133 73.22 130.76C72.02 130.36 71.1133 129.973 70.5 129.6C69.8867 129.2 69.18 128.693 68.38 128.08L71.5 123.68C71.6867 123.84 71.9267 124.053 72.22 124.32C72.54 124.56 73.14 124.893 74.02 125.32C74.9 125.747 75.7267 125.96 76.5 125.96ZM77.34 115.88C78.5933 115.88 79.6333 115.52 80.46 114.8C81.2867 114.08 81.7 113.133 81.7 111.96C81.7 110.787 81.3 109.773 80.5 108.92C79.7 108.067 78.7 107.64 77.5 107.64C76.3 107.64 75.3133 108.027 74.54 108.8C73.7933 109.547 73.42 110.507 73.42 111.68C73.42 112.853 73.7667 113.853 74.46 114.68C75.1533 115.48 76.1133 115.88 77.34 115.88ZM92.7363 112V103.04H112.936V107.76L101.616 131H94.8163L105.616 108.4H98.5763V112H92.7363ZM124.74 117.96C126.394 116.28 127.567 114.947 128.26 113.96C128.98 112.947 129.34 111.973 129.34 111.04C129.34 110.107 129.034 109.333 128.42 108.72C127.807 108.08 127.02 107.76 126.06 107.76C124.3 107.76 122.634 109.013 121.06 111.52L116.06 108.56C117.367 106.533 118.794 105 120.34 103.96C121.914 102.92 123.9 102.4 126.3 102.4C128.727 102.4 130.847 103.173 132.66 104.72C134.5 106.24 135.42 108.32 135.42 110.96C135.42 112.4 135.047 113.787 134.3 115.12C133.58 116.427 132.234 118.107 130.26 120.16L125.22 125.4H136.26V131H116.54V126.36L124.74 117.96ZM158.306 126.64V119.44H151.306V114.52H158.306V107.32H163.826V114.52H170.826V119.44H163.826V126.64H158.306Z" fill="#252B42"/>
<path d="M41.963 173.192C40.8217 173.192 39.787 172.947 38.859 172.456C37.9417 171.955 37.2163 171.267 36.683 170.392C36.1603 169.507 35.899 168.509 35.899 167.4C35.899 166.291 36.1603 165.299 36.683 164.424C37.2163 163.539 37.9417 162.851 38.859 162.36C39.787 161.859 40.827 161.608 41.979 161.608C42.9497 161.608 43.8243 161.779 44.603 162.12C45.3923 162.461 46.0537 162.952 46.587 163.592L44.923 165.128C44.1657 164.253 43.227 163.816 42.107 163.816C41.4137 163.816 40.795 163.971 40.251 164.28C39.707 164.579 39.2803 165 38.971 165.544C38.6723 166.088 38.523 166.707 38.523 167.4C38.523 168.093 38.6723 168.712 38.971 169.256C39.2803 169.8 39.707 170.227 40.251 170.536C40.795 170.835 41.4137 170.984 42.107 170.984C43.227 170.984 44.1657 170.541 44.923 169.656L46.587 171.192C46.0537 171.843 45.3923 172.339 44.603 172.68C43.8137 173.021 42.9337 173.192 41.963 173.192ZM52.0605 173.128C51.1538 173.128 50.3378 172.941 49.6125 172.568C48.8978 172.184 48.3378 171.656 47.9325 170.984C47.5272 170.312 47.3245 169.549 47.3245 168.696C47.3245 167.843 47.5272 167.08 47.9325 166.408C48.3378 165.736 48.8978 165.213 49.6125 164.84C50.3378 164.456 51.1538 164.264 52.0605 164.264C52.9672 164.264 53.7778 164.456 54.4925 164.84C55.2072 165.213 55.7672 165.736 56.1725 166.408C56.5778 167.08 56.7805 167.843 56.7805 168.696C56.7805 169.549 56.5778 170.312 56.1725 170.984C55.7672 171.656 55.2072 172.184 54.4925 172.568C53.7778 172.941 52.9672 173.128 52.0605 173.128ZM52.0605 171.08C52.7005 171.08 53.2232 170.867 53.6285 170.44C54.0445 170.003 54.2525 169.421 54.2525 168.696C54.2525 167.971 54.0445 167.395 53.6285 166.968C53.2232 166.531 52.7005 166.312 52.0605 166.312C51.4205 166.312 50.8925 166.531 50.4765 166.968C50.0605 167.395 49.8525 167.971 49.8525 168.696C49.8525 169.421 50.0605 170.003 50.4765 170.44C50.8925 170.867 51.4205 171.08 52.0605 171.08ZM63.7809 164.264C64.8475 164.264 65.7062 164.584 66.3569 165.224C67.0182 165.864 67.3489 166.813 67.3489 168.072V173H64.8529V168.456C64.8529 167.773 64.7035 167.267 64.4049 166.936C64.1062 166.595 63.6742 166.424 63.1089 166.424C62.4795 166.424 61.9782 166.621 61.6049 167.016C61.2315 167.4 61.0449 167.976 61.0449 168.744V173H58.5489V164.392H60.9329V165.4C61.2635 165.037 61.6742 164.76 62.1649 164.568C62.6555 164.365 63.1942 164.264 63.7809 164.264ZM72.6074 173.128C71.8927 173.128 71.194 173.043 70.5114 172.872C69.8287 172.691 69.2847 172.467 68.8794 172.2L69.7114 170.408C70.0954 170.653 70.5594 170.856 71.1034 171.016C71.6474 171.165 72.1807 171.24 72.7034 171.24C73.7594 171.24 74.2874 170.979 74.2874 170.456C74.2874 170.211 74.1434 170.035 73.8554 169.928C73.5674 169.821 73.1247 169.731 72.5274 169.656C71.8234 169.549 71.242 169.427 70.7834 169.288C70.3247 169.149 69.9247 168.904 69.5834 168.552C69.2527 168.2 69.0874 167.699 69.0874 167.048C69.0874 166.504 69.242 166.024 69.5514 165.608C69.8714 165.181 70.33 164.851 70.9274 164.616C71.5354 164.381 72.25 164.264 73.0714 164.264C73.6794 164.264 74.282 164.333 74.8794 164.472C75.4874 164.6 75.9887 164.781 76.3834 165.016L75.5514 166.792C74.794 166.365 73.9674 166.152 73.0714 166.152C72.538 166.152 72.138 166.227 71.8714 166.376C71.6047 166.525 71.4714 166.717 71.4714 166.952C71.4714 167.219 71.6154 167.405 71.9034 167.512C72.1914 167.619 72.65 167.72 73.2794 167.816C73.9834 167.933 74.5594 168.061 75.0074 168.2C75.4554 168.328 75.8447 168.568 76.1754 168.92C76.506 169.272 76.6714 169.763 76.6714 170.392C76.6714 170.925 76.5114 171.4 76.1914 171.816C75.8714 172.232 75.402 172.557 74.7834 172.792C74.1754 173.016 73.45 173.128 72.6074 173.128ZM86.9834 164.392V173H84.6154V171.976C84.2847 172.349 83.89 172.637 83.4314 172.84C82.9727 173.032 82.4767 173.128 81.9434 173.128C80.8127 173.128 79.9167 172.803 79.2554 172.152C78.594 171.501 78.2634 170.536 78.2634 169.256V164.392H80.7594V168.888C80.7594 170.275 81.3407 170.968 82.5034 170.968C83.1007 170.968 83.5807 170.776 83.9434 170.392C84.306 169.997 84.4874 169.416 84.4874 168.648V164.392H86.9834ZM100.42 164.264C101.497 164.264 102.35 164.584 102.98 165.224C103.62 165.853 103.94 166.803 103.94 168.072V173H101.444V168.456C101.444 167.773 101.3 167.267 101.012 166.936C100.734 166.595 100.334 166.424 99.8118 166.424C99.2251 166.424 98.7611 166.616 98.4198 167C98.0784 167.373 97.9078 167.933 97.9078 168.68V173H95.4118V168.456C95.4118 167.101 94.8678 166.424 93.7798 166.424C93.2038 166.424 92.7451 166.616 92.4038 167C92.0624 167.373 91.8918 167.933 91.8918 168.68V173H89.3958V164.392H91.7798V165.384C92.0998 165.021 92.4891 164.744 92.9478 164.552C93.4171 164.36 93.9291 164.264 94.4838 164.264C95.0918 164.264 95.6411 164.387 96.1318 164.632C96.6224 164.867 97.0171 165.213 97.3158 165.672C97.6678 165.224 98.1104 164.877 98.6438 164.632C99.1878 164.387 99.7798 164.264 100.42 164.264ZM114.803 168.728C114.803 168.76 114.787 168.984 114.755 169.4H108.243C108.36 169.933 108.637 170.355 109.075 170.664C109.512 170.973 110.056 171.128 110.707 171.128C111.155 171.128 111.549 171.064 111.891 170.936C112.243 170.797 112.568 170.584 112.867 170.296L114.195 171.736C113.384 172.664 112.2 173.128 110.643 173.128C109.672 173.128 108.813 172.941 108.067 172.568C107.32 172.184 106.744 171.656 106.339 170.984C105.933 170.312 105.731 169.549 105.731 168.696C105.731 167.853 105.928 167.096 106.323 166.424C106.728 165.741 107.277 165.213 107.971 164.84C108.675 164.456 109.459 164.264 110.323 164.264C111.165 164.264 111.928 164.445 112.611 164.808C113.293 165.171 113.827 165.693 114.211 166.376C114.605 167.048 114.803 167.832 114.803 168.728ZM110.339 166.152C109.773 166.152 109.299 166.312 108.915 166.632C108.531 166.952 108.296 167.389 108.211 167.944H112.451C112.365 167.4 112.131 166.968 111.747 166.648C111.363 166.317 110.893 166.152 110.339 166.152ZM118.948 165.528C119.247 165.112 119.647 164.797 120.148 164.584C120.66 164.371 121.247 164.264 121.908 164.264V166.568C121.631 166.547 121.444 166.536 121.348 166.536C120.634 166.536 120.074 166.739 119.668 167.144C119.263 167.539 119.06 168.136 119.06 168.936V173H116.564V164.392H118.948V165.528ZM133.21 161.8C134.202 161.8 135.061 161.965 135.786 162.296C136.522 162.627 137.088 163.096 137.482 163.704C137.877 164.312 138.074 165.032 138.074 165.864C138.074 166.685 137.877 167.405 137.482 168.024C137.088 168.632 136.522 169.101 135.786 169.432C135.061 169.752 134.202 169.912 133.21 169.912H130.954V173H128.362V161.8H133.21ZM133.066 167.8C133.845 167.8 134.437 167.635 134.842 167.304C135.248 166.963 135.45 166.483 135.45 165.864C135.45 165.235 135.248 164.755 134.842 164.424C134.437 164.083 133.845 163.912 133.066 163.912H130.954V167.8H133.066ZM142.233 165.528C142.532 165.112 142.932 164.797 143.433 164.584C143.945 164.371 144.532 164.264 145.193 164.264V166.568C144.916 166.547 144.729 166.536 144.633 166.536C143.918 166.536 143.358 166.739 142.953 167.144C142.548 167.539 142.345 168.136 142.345 168.936V173H139.849V164.392H142.233V165.528ZM150.795 173.128C149.888 173.128 149.072 172.941 148.347 172.568C147.632 172.184 147.072 171.656 146.667 170.984C146.262 170.312 146.059 169.549 146.059 168.696C146.059 167.843 146.262 167.08 146.667 166.408C147.072 165.736 147.632 165.213 148.347 164.84C149.072 164.456 149.888 164.264 150.795 164.264C151.702 164.264 152.512 164.456 153.227 164.84C153.942 165.213 154.502 165.736 154.907 166.408C155.312 167.08 155.515 167.843 155.515 168.696C155.515 169.549 155.312 170.312 154.907 170.984C154.502 171.656 153.942 172.184 153.227 172.568C152.512 172.941 151.702 173.128 150.795 173.128ZM150.795 171.08C151.435 171.08 151.958 170.867 152.363 170.44C152.779 170.003 152.987 169.421 152.987 168.696C152.987 167.971 152.779 167.395 152.363 166.968C151.958 166.531 151.435 166.312 150.795 166.312C150.155 166.312 149.627 166.531 149.211 166.968C148.795 167.395 148.587 167.971 148.587 168.696C148.587 169.421 148.795 170.003 149.211 170.44C149.627 170.867 150.155 171.08 150.795 171.08ZM166.051 161.128V173H163.667V172.008C163.049 172.755 162.153 173.128 160.979 173.128C160.169 173.128 159.433 172.947 158.771 172.584C158.121 172.221 157.609 171.704 157.235 171.032C156.862 170.36 156.675 169.581 156.675 168.696C156.675 167.811 156.862 167.032 157.235 166.36C157.609 165.688 158.121 165.171 158.771 164.808C159.433 164.445 160.169 164.264 160.979 164.264C162.078 164.264 162.937 164.611 163.555 165.304V161.128H166.051ZM161.411 171.08C162.041 171.08 162.563 170.867 162.979 170.44C163.395 170.003 163.603 169.421 163.603 168.696C163.603 167.971 163.395 167.395 162.979 166.968C162.563 166.531 162.041 166.312 161.411 166.312C160.771 166.312 160.243 166.531 159.827 166.968C159.411 167.395 159.203 167.971 159.203 168.696C159.203 169.421 159.411 170.003 159.827 170.44C160.243 170.867 160.771 171.08 161.411 171.08ZM177.133 164.392V173H174.765V171.976C174.435 172.349 174.04 172.637 173.581 172.84C173.123 173.032 172.627 173.128 172.093 173.128C170.963 173.128 170.067 172.803 169.405 172.152C168.744 171.501 168.413 170.536 168.413 169.256V164.392H170.909V168.888C170.909 170.275 171.491 170.968 172.653 170.968C173.251 170.968 173.731 170.776 174.093 170.392C174.456 169.997 174.637 169.416 174.637 168.648V164.392H177.133ZM183.706 173.128C182.788 173.128 181.962 172.941 181.226 172.568C180.5 172.184 179.93 171.656 179.514 170.984C179.108 170.312 178.906 169.549 178.906 168.696C178.906 167.843 179.108 167.08 179.514 166.408C179.93 165.736 180.5 165.213 181.226 164.84C181.962 164.456 182.788 164.264 183.706 164.264C184.612 164.264 185.402 164.456 186.074 164.84C186.756 165.213 187.252 165.752 187.562 166.456L185.626 167.496C185.178 166.707 184.532 166.312 183.69 166.312C183.039 166.312 182.5 166.525 182.074 166.952C181.647 167.379 181.434 167.96 181.434 168.696C181.434 169.432 181.647 170.013 182.074 170.44C182.5 170.867 183.039 171.08 183.69 171.08C184.543 171.08 185.188 170.685 185.626 169.896L187.562 170.952C187.252 171.635 186.756 172.168 186.074 172.552C185.402 172.936 184.612 173.128 183.706 173.128ZM194.776 172.584C194.531 172.765 194.227 172.904 193.864 173C193.512 173.085 193.139 173.128 192.744 173.128C191.72 173.128 190.925 172.867 190.36 172.344C189.805 171.821 189.528 171.053 189.528 170.04V166.504H188.2V164.584H189.528V162.488H192.024V164.584H194.168V166.504H192.024V170.008C192.024 170.371 192.115 170.653 192.296 170.856C192.488 171.048 192.755 171.144 193.096 171.144C193.491 171.144 193.827 171.037 194.104 170.824L194.776 172.584ZM199.173 173.128C198.458 173.128 197.76 173.043 197.077 172.872C196.394 172.691 195.85 172.467 195.445 172.2L196.277 170.408C196.661 170.653 197.125 170.856 197.669 171.016C198.213 171.165 198.746 171.24 199.269 171.24C200.325 171.24 200.853 170.979 200.853 170.456C200.853 170.211 200.709 170.035 200.421 169.928C200.133 169.821 199.69 169.731 199.093 169.656C198.389 169.549 197.808 169.427 197.349 169.288C196.89 169.149 196.49 168.904 196.149 168.552C195.818 168.2 195.653 167.699 195.653 167.048C195.653 166.504 195.808 166.024 196.117 165.608C196.437 165.181 196.896 164.851 197.493 164.616C198.101 164.381 198.816 164.264 199.637 164.264C200.245 164.264 200.848 164.333 201.445 164.472C202.053 164.6 202.554 164.781 202.949 165.016L202.117 166.792C201.36 166.365 200.533 166.152 199.637 166.152C199.104 166.152 198.704 166.227 198.437 166.376C198.17 166.525 198.037 166.717 198.037 166.952C198.037 167.219 198.181 167.405 198.469 167.512C198.757 167.619 199.216 167.72 199.845 167.816C200.549 167.933 201.125 168.061 201.573 168.2C202.021 168.328 202.41 168.568 202.741 168.92C203.072 169.272 203.237 169.763 203.237 170.392C203.237 170.925 203.077 171.4 202.757 171.816C202.437 172.232 201.968 172.557 201.349 172.792C200.741 173.016 200.016 173.128 199.173 173.128Z" fill="#737373"/>
</g>
<defs>
<filter id="filter0_d_965_118" x="0.5" y="0" width="246" height="217" filterUnits="userSpaceOnUse" color-interpolation-filters="sRGB">
<feFlood flood-opacity="0" result="BackgroundImageFix"/>
<feColorMatrix in="SourceAlpha" type="matrix" values="0 0 0 0 0 0 0 0 0 0 0 0 0 0 0 0 0 0 127 0" result="hardAlpha"/>
<feOffset dy="4"/>
<feGaussianBlur stdDeviation="2"/>
<feComposite in2="hardAlpha" operator="out"/>
<feColorMatrix type="matrix" values="0 0 0 0 0 0 0 0 0 0 0 0 0 0 0 0 0 0 0.25 0"/>
<feBlend mode="normal" in2="BackgroundImageFix" result="effect1_dropShadow_965_118"/>
<feBlend mode="normal" in="SourceGraphic" in2="effect1_dropShadow_965_118" result="shape"/>
</filter>
<clipPath id="clip0_965_118">
<rect width="48" height="48" fill="white" transform="translate(95.5 30)"/>
</clipPath>
<clipPath id="clip1_965_118">
<rect width="48" height="44.2105" fill="white" transform="translate(96 32)"/>
</clipPath>
</defs>
</svg>
